<?xml version="1.0" encoding="utf-8"?>
<!-- Generator: Adobe Illustrator 22.0.1, SVG Export Plug-In . SVG Version: 6.00 Build 0)  -->
<svg version="1.1" id="Layer_1" xmlns="http://www.w3.org/2000/svg" xmlns:xlink="http://www.w3.org/1999/xlink" x="0px" y="0px"
	 viewBox="0 0 40 30" enable-background="new 0 0 40 30" xml:space="preserve">
<path fill="#DDDDDD" d="M37,13.7c-2.1-2.2-5.1-3-7.8-2.6c0.4-2.8-0.5-5.7-2.6-7.8v0C23-0.4,17-0.4,13.4,3.2c-2.1,2.1-3,5.1-2.6,7.8
	C8,10.7,5.1,11.5,3,13.7h0c-3.6,3.6-3.6,9.5,0,13.1c3.6,3.6,9.5,3.6,13.1,0l2.3-2.3l-0.3-0.3c-1.3-1.3-3.4-1.3-4.7,0
	c-2.1,2.2-5.7,2.2-7.8,0c-2.3-2.2-2.2-5.7,0-7.9h0c2.1-2.1,5.6-2.2,7.8-0.1c0,0,0,0,0.1,0.1l0,0l6.5,6.5l3.9,3.9
	c3.6,3.6,9.5,3.6,13.1,0C40.6,23.2,40.6,17.3,37,13.7z M34.4,24.2c-2.2,2.2-5.7,2.2-7.8,0L20,17.6l-3.9-3.9
	c-0.1-0.1-0.1-0.1-0.2-0.2c-2-2.2-1.9-5.5,0.2-7.6c2.2-2.2,5.7-2.2,7.9,0s2.2,5.7,0,7.8L21.6,16l0.3,0.3c1.3,1.3,3.4,1.3,4.6,0
	c2.2-2.2,5.7-2.2,7.9,0C36.6,18.5,36.6,22,34.4,24.2z"/>
</svg>
